<mxfile host="app.diagrams.net" modified="2022-12-22T09:34:41.004Z" agent="5.0 (Windows NT 10.0; Win64; x64) AppleWebKit/537.36 (KHTML, like Gecko) Chrome/107.0.0.0 Safari/537.36" etag="1LsFsdLiveUyeICCMgI8" version="20.7.4" type="github">
  <diagram id="CT1NjjWQJzac3AZeAv4A" name="第 1 页">
    <mxGraphModel dx="655" dy="587" grid="1" gridSize="10" guides="1" tooltips="1" connect="1" arrows="1" fold="1" page="1" pageScale="1" pageWidth="827" pageHeight="1169" math="0" shadow="0">
      <root>
        <mxCell id="0" />
        <mxCell id="1" parent="0" />
        <mxCell id="kSKy-D9Eql0qE67P8Xhp-1" value="result{}" style="ellipse;whiteSpace=wrap;html=1;aspect=fixed;" vertex="1" parent="1">
          <mxGeometry x="414" y="130" width="80" height="80" as="geometry" />
        </mxCell>
        <mxCell id="kSKy-D9Eql0qE67P8Xhp-9" style="edgeStyle=orthogonalEdgeStyle;rounded=0;orthogonalLoop=1;jettySize=auto;html=1;curved=1;" edge="1" parent="1" source="kSKy-D9Eql0qE67P8Xhp-2" target="kSKy-D9Eql0qE67P8Xhp-1">
          <mxGeometry relative="1" as="geometry" />
        </mxCell>
        <mxCell id="kSKy-D9Eql0qE67P8Xhp-10" value="not found crd" style="edgeLabel;html=1;align=center;verticalAlign=middle;resizable=0;points=[];" vertex="1" connectable="0" parent="kSKy-D9Eql0qE67P8Xhp-9">
          <mxGeometry x="-0.2745" y="-1" relative="1" as="geometry">
            <mxPoint as="offset" />
          </mxGeometry>
        </mxCell>
        <mxCell id="kSKy-D9Eql0qE67P8Xhp-29" style="edgeStyle=orthogonalEdgeStyle;curved=1;rounded=0;orthogonalLoop=1;jettySize=auto;html=1;entryX=1;entryY=0;entryDx=0;entryDy=0;exitX=1;exitY=0;exitDx=0;exitDy=0;" edge="1" parent="1" source="kSKy-D9Eql0qE67P8Xhp-2" target="kSKy-D9Eql0qE67P8Xhp-8">
          <mxGeometry relative="1" as="geometry">
            <Array as="points">
              <mxPoint x="300" y="252" />
              <mxPoint x="300" y="100" />
              <mxPoint x="470" y="100" />
              <mxPoint x="470" y="90" />
              <mxPoint x="678" y="90" />
            </Array>
          </mxGeometry>
        </mxCell>
        <mxCell id="kSKy-D9Eql0qE67P8Xhp-30" value="status not ok" style="edgeLabel;html=1;align=center;verticalAlign=middle;resizable=0;points=[];" vertex="1" connectable="0" parent="kSKy-D9Eql0qE67P8Xhp-29">
          <mxGeometry x="0.0477" y="-4" relative="1" as="geometry">
            <mxPoint as="offset" />
          </mxGeometry>
        </mxCell>
        <mxCell id="kSKy-D9Eql0qE67P8Xhp-2" value="check crd status" style="ellipse;whiteSpace=wrap;html=1;aspect=fixed;" vertex="1" parent="1">
          <mxGeometry x="190" y="240" width="80" height="80" as="geometry" />
        </mxCell>
        <mxCell id="kSKy-D9Eql0qE67P8Xhp-16" style="edgeStyle=orthogonalEdgeStyle;rounded=0;orthogonalLoop=1;jettySize=auto;html=1;entryX=0.5;entryY=0;entryDx=0;entryDy=0;curved=1;" edge="1" parent="1" source="kSKy-D9Eql0qE67P8Xhp-4" target="kSKy-D9Eql0qE67P8Xhp-13">
          <mxGeometry relative="1" as="geometry" />
        </mxCell>
        <mxCell id="kSKy-D9Eql0qE67P8Xhp-17" value="job not exist" style="edgeLabel;html=1;align=center;verticalAlign=middle;resizable=0;points=[];" vertex="1" connectable="0" parent="kSKy-D9Eql0qE67P8Xhp-16">
          <mxGeometry x="-0.1022" relative="1" as="geometry">
            <mxPoint as="offset" />
          </mxGeometry>
        </mxCell>
        <mxCell id="kSKy-D9Eql0qE67P8Xhp-19" style="edgeStyle=orthogonalEdgeStyle;rounded=0;orthogonalLoop=1;jettySize=auto;html=1;entryX=0;entryY=0.5;entryDx=0;entryDy=0;curved=1;" edge="1" parent="1" source="kSKy-D9Eql0qE67P8Xhp-4" target="kSKy-D9Eql0qE67P8Xhp-8">
          <mxGeometry relative="1" as="geometry">
            <Array as="points">
              <mxPoint x="450" y="340" />
            </Array>
          </mxGeometry>
        </mxCell>
        <mxCell id="kSKy-D9Eql0qE67P8Xhp-20" value="job exist and running" style="edgeLabel;html=1;align=center;verticalAlign=middle;resizable=0;points=[];" vertex="1" connectable="0" parent="kSKy-D9Eql0qE67P8Xhp-19">
          <mxGeometry x="-0.1535" y="-2" relative="1" as="geometry">
            <mxPoint as="offset" />
          </mxGeometry>
        </mxCell>
        <mxCell id="kSKy-D9Eql0qE67P8Xhp-21" style="edgeStyle=orthogonalEdgeStyle;rounded=0;orthogonalLoop=1;jettySize=auto;html=1;curved=1;" edge="1" parent="1" source="kSKy-D9Eql0qE67P8Xhp-4" target="kSKy-D9Eql0qE67P8Xhp-23">
          <mxGeometry relative="1" as="geometry">
            <Array as="points">
              <mxPoint x="390" y="300" />
              <mxPoint x="530" y="300" />
              <mxPoint x="530" y="210" />
            </Array>
          </mxGeometry>
        </mxCell>
        <mxCell id="kSKy-D9Eql0qE67P8Xhp-22" value="job is carshed" style="edgeLabel;html=1;align=center;verticalAlign=middle;resizable=0;points=[];" vertex="1" connectable="0" parent="kSKy-D9Eql0qE67P8Xhp-21">
          <mxGeometry x="-0.4815" y="-16" relative="1" as="geometry">
            <mxPoint as="offset" />
          </mxGeometry>
        </mxCell>
        <mxCell id="kSKy-D9Eql0qE67P8Xhp-4" value="check job status" style="ellipse;whiteSpace=wrap;html=1;aspect=fixed;" vertex="1" parent="1">
          <mxGeometry x="370" y="380" width="80" height="80" as="geometry" />
        </mxCell>
        <mxCell id="kSKy-D9Eql0qE67P8Xhp-32" style="edgeStyle=orthogonalEdgeStyle;curved=1;rounded=0;orthogonalLoop=1;jettySize=auto;html=1;" edge="1" parent="1" source="kSKy-D9Eql0qE67P8Xhp-5">
          <mxGeometry relative="1" as="geometry">
            <mxPoint x="620" y="760" as="targetPoint" />
          </mxGeometry>
        </mxCell>
        <mxCell id="kSKy-D9Eql0qE67P8Xhp-33" value="ok" style="edgeLabel;html=1;align=center;verticalAlign=middle;resizable=0;points=[];" vertex="1" connectable="0" parent="kSKy-D9Eql0qE67P8Xhp-32">
          <mxGeometry x="-0.1833" y="-1" relative="1" as="geometry">
            <mxPoint as="offset" />
          </mxGeometry>
        </mxCell>
        <mxCell id="kSKy-D9Eql0qE67P8Xhp-34" style="edgeStyle=orthogonalEdgeStyle;curved=1;rounded=0;orthogonalLoop=1;jettySize=auto;html=1;entryX=1;entryY=0.75;entryDx=0;entryDy=0;entryPerimeter=0;" edge="1" parent="1" source="kSKy-D9Eql0qE67P8Xhp-5" target="kSKy-D9Eql0qE67P8Xhp-8">
          <mxGeometry relative="1" as="geometry">
            <Array as="points">
              <mxPoint x="760" y="650" />
              <mxPoint x="760" y="360" />
            </Array>
          </mxGeometry>
        </mxCell>
        <mxCell id="kSKy-D9Eql0qE67P8Xhp-35" value="crashed" style="edgeLabel;html=1;align=center;verticalAlign=middle;resizable=0;points=[];" vertex="1" connectable="0" parent="kSKy-D9Eql0qE67P8Xhp-34">
          <mxGeometry x="-0.2039" relative="1" as="geometry">
            <mxPoint as="offset" />
          </mxGeometry>
        </mxCell>
        <mxCell id="kSKy-D9Eql0qE67P8Xhp-5" value="create job" style="ellipse;whiteSpace=wrap;html=1;aspect=fixed;" vertex="1" parent="1">
          <mxGeometry x="610" y="610" width="80" height="80" as="geometry" />
        </mxCell>
        <mxCell id="kSKy-D9Eql0qE67P8Xhp-6" value="" style="curved=1;endArrow=classic;html=1;rounded=0;exitX=0.5;exitY=1;exitDx=0;exitDy=0;" edge="1" parent="1" source="kSKy-D9Eql0qE67P8Xhp-2" target="kSKy-D9Eql0qE67P8Xhp-4">
          <mxGeometry width="50" height="50" relative="1" as="geometry">
            <mxPoint x="270" y="320" as="sourcePoint" />
            <mxPoint x="332.1880078490092" y="386.71798822648634" as="targetPoint" />
            <Array as="points">
              <mxPoint x="340" y="350" />
              <mxPoint x="350" y="360" />
            </Array>
          </mxGeometry>
        </mxCell>
        <mxCell id="kSKy-D9Eql0qE67P8Xhp-7" value="status ok" style="edgeLabel;html=1;align=center;verticalAlign=middle;resizable=0;points=[];" vertex="1" connectable="0" parent="kSKy-D9Eql0qE67P8Xhp-6">
          <mxGeometry x="-0.4666" relative="1" as="geometry">
            <mxPoint as="offset" />
          </mxGeometry>
        </mxCell>
        <mxCell id="kSKy-D9Eql0qE67P8Xhp-8" value="requeue" style="ellipse;whiteSpace=wrap;html=1;aspect=fixed;" vertex="1" parent="1">
          <mxGeometry x="610" y="300" width="80" height="80" as="geometry" />
        </mxCell>
        <mxCell id="kSKy-D9Eql0qE67P8Xhp-31" style="edgeStyle=orthogonalEdgeStyle;curved=1;rounded=0;orthogonalLoop=1;jettySize=auto;html=1;" edge="1" parent="1" source="kSKy-D9Eql0qE67P8Xhp-13" target="kSKy-D9Eql0qE67P8Xhp-5">
          <mxGeometry relative="1" as="geometry" />
        </mxCell>
        <mxCell id="kSKy-D9Eql0qE67P8Xhp-13" value="create cm" style="ellipse;whiteSpace=wrap;html=1;aspect=fixed;" vertex="1" parent="1">
          <mxGeometry x="520" y="460" width="80" height="80" as="geometry" />
        </mxCell>
        <mxCell id="kSKy-D9Eql0qE67P8Xhp-18" value="just creat new cm" style="text;html=1;align=center;verticalAlign=middle;resizable=0;points=[];autosize=1;strokeColor=none;fillColor=none;" vertex="1" parent="1">
          <mxGeometry x="610" y="485" width="120" height="30" as="geometry" />
        </mxCell>
        <mxCell id="kSKy-D9Eql0qE67P8Xhp-24" style="edgeStyle=orthogonalEdgeStyle;curved=1;rounded=0;orthogonalLoop=1;jettySize=auto;html=1;" edge="1" parent="1" source="kSKy-D9Eql0qE67P8Xhp-23" target="kSKy-D9Eql0qE67P8Xhp-8">
          <mxGeometry relative="1" as="geometry" />
        </mxCell>
        <mxCell id="kSKy-D9Eql0qE67P8Xhp-23" value="delete job" style="ellipse;whiteSpace=wrap;html=1;aspect=fixed;" vertex="1" parent="1">
          <mxGeometry x="550" y="180" width="80" height="80" as="geometry" />
        </mxCell>
        <mxCell id="kSKy-D9Eql0qE67P8Xhp-26" style="edgeStyle=orthogonalEdgeStyle;curved=1;rounded=0;orthogonalLoop=1;jettySize=auto;html=1;" edge="1" parent="1" source="kSKy-D9Eql0qE67P8Xhp-25" target="kSKy-D9Eql0qE67P8Xhp-2">
          <mxGeometry relative="1" as="geometry" />
        </mxCell>
        <mxCell id="kSKy-D9Eql0qE67P8Xhp-27" value="watch crd update" style="edgeLabel;html=1;align=center;verticalAlign=middle;resizable=0;points=[];" vertex="1" connectable="0" parent="kSKy-D9Eql0qE67P8Xhp-26">
          <mxGeometry x="-0.2469" y="3" relative="1" as="geometry">
            <mxPoint as="offset" />
          </mxGeometry>
        </mxCell>
        <mxCell id="kSKy-D9Eql0qE67P8Xhp-25" value="customCluster" style="rounded=0;whiteSpace=wrap;html=1;" vertex="1" parent="1">
          <mxGeometry x="110" y="140" width="120" height="60" as="geometry" />
        </mxCell>
      </root>
    </mxGraphModel>
  </diagram>
</mxfile>
